<?xml version="1.0" standalone="no"?>
<!DOCTYPE svg PUBLIC "-//W3C//DTD SVG 20010904//EN"
 "http://www.w3.org/TR/2001/REC-SVG-20010904/DTD/svg10.dtd">
<svg version="1.0" xmlns="http://www.w3.org/2000/svg"
 width="681.000000pt" height="681.000000pt" viewBox="0 0 681.000000 681.000000"
 preserveAspectRatio="xMidYMid meet">
<metadata>
Created by potrace 1.14, written by Peter Selinger 2001-2017
</metadata>
<g transform="translate(0.000000,681.000000) scale(0.100000,-0.100000)"
fill="#000000" stroke="none">
<path d="M2490 5234 c-49 -21 -79 -52 -101 -102 -22 -51 -23 -71 -8 -123 12
-39 68 -109 88 -109 22 0 9 -23 -82 -143 -51 -67 -151 -198 -222 -292 -71 -93
-145 -191 -165 -216 -19 -25 -46 -60 -60 -79 -59 -79 -140 -186 -148 -195 -4
-5 -41 -55 -82 -110 -41 -55 -77 -102 -80 -105 -3 -3 -25 -32 -50 -65 -25 -33
-47 -62 -50 -65 -3 -3 -37 -48 -76 -100 -76 -101 -250 -330 -455 -600 -69 -91
-191 -251 -270 -355 -79 -105 -177 -233 -216 -285 -356 -467 -503 -662 -503
-669 0 -11 6759 -11 6765 -1 4 7 -135 195 -442 596 -70 92 -751 989 -868 1144
-77 102 -145 192 -152 200 -12 15 -346 455 -661 870 -86 113 -198 260 -250
328 -52 68 -92 124 -91 126 72 46 119 113 119 170 0 108 -91 196 -201 196 -30
0 -129 -39 -129 -51 0 -4 -6 -14 -13 -21 -30 -30 -48 -88 -42 -133 6 -55 47
-121 88 -142 17 -8 26 -18 21 -22 -5 -3 -72 -89 -148 -191 -77 -102 -148 -195
-159 -207 l-20 -22 -50 67 c-27 37 -99 132 -160 211 l-110 144 41 34 c133 110
61 323 -112 332 -173 8 -269 -196 -148 -316 15 -15 37 -33 47 -39 17 -9 5 -29
-133 -210 -84 -109 -165 -215 -180 -235 l-27 -36 -179 234 c-98 129 -177 235
-175 237 75 48 104 87 115 152 22 141 -132 256 -266 198z m220 -814 c77 -101
140 -188 140 -191 0 -4 -95 -133 -212 -286 -116 -153 -281 -370 -366 -483 -86
-113 -190 -250 -232 -305 -42 -55 -120 -157 -173 -227 -53 -71 -141 -185 -194
-255 -53 -71 -131 -173 -173 -228 -42 -55 -151 -199 -243 -320 -91 -121 -179
-235 -194 -253 l-28 -32 -145 -1 c-80 0 -211 0 -293 0 l-147 1 120 158 c66 86
185 243 264 347 79 105 227 299 328 432 100 132 309 407 463 610 153 202 284
373 290 380 5 6 152 199 325 427 173 229 318 415 322 414 4 -2 70 -86 148
-188z m854 21 c71 -94 122 -170 118 -176 -4 -7 -70 -94 -147 -194 l-139 -183
-19 24 c-10 12 -24 30 -30 38 -48 59 -207 272 -207 277 0 13 284 383 291 381
4 -2 64 -77 133 -167z m708 122 c140 -186 906 -1194 1274 -1678 146 -192 324
-426 395 -520 71 -93 189 -250 264 -348 l135 -177 -95 -1 c-134 0 -210 0 -327
1 l-103 1 -26 37 c-15 20 -117 156 -228 302 -111 146 -281 371 -379 500 -97
129 -179 237 -183 240 -3 3 -70 91 -149 195 -79 105 -192 253 -250 330 -416
547 -621 819 -623 826 -2 9 243 339 253 339 3 0 22 -21 42 -47z m-138 -873
c55 -74 105 -140 111 -146 5 -6 114 -148 240 -315 127 -167 297 -391 378 -499
82 -107 207 -271 278 -365 71 -93 189 -250 264 -348 l134 -177 -296 2 -297 3
-321 421 c-176 232 -417 549 -535 705 -118 156 -289 380 -379 499 -90 118
-165 220 -168 226 -3 10 146 216 254 352 l34 42 101 -132 c55 -73 146 -194
202 -268z m-1084 284 c8 -11 46 -62 85 -114 38 -52 80 -106 92 -120 13 -14 23
-29 23 -34 0 -9 -71 -104 -395 -531 -92 -121 -206 -272 -254 -335 -47 -63 -88
-117 -91 -120 -3 -3 -61 -79 -130 -170 -69 -91 -130 -172 -137 -180 -7 -8 -71
-94 -144 -190 -72 -96 -161 -212 -196 -257 l-64 -83 -259 0 -260 0 127 168
c70 92 159 208 198 259 38 50 78 102 87 115 16 21 269 355 618 813 79 105 202
267 273 360 70 94 133 177 140 185 7 8 62 80 122 159 l109 144 20 -25 c12 -14
28 -34 36 -44z m467 -616 c142 -187 388 -512 503 -663 146 -192 331 -436 355
-469 11 -16 25 -33 30 -40 6 -6 68 -86 138 -178 l127 -168 -1276 0 -1276 0 34
43 c18 23 36 47 41 52 4 6 99 130 210 277 1006 1327 991 1308 1009 1285 9 -12
56 -75 105 -139z"/>
</g>
</svg>
